<svg xmlns="http://www.w3.org/2000/svg" xmlns:xlink="http://www.w3.org/1999/xlink" width="500" zoomAndPan="magnify" viewBox="0 0 375 374.999991" height="500" preserveAspectRatio="xMidYMid meet" version="1.0"><defs><clipPath id="c75a49db07"><path d="M 14.917969 14.917969 L 359.917969 14.917969 L 359.917969 359.917969 L 14.917969 359.917969 Z M 14.917969 14.917969 " clip-rule="nonzero"/></clipPath><clipPath id="08c7cb0611"><path d="M 26 77 L 249 77 L 249 359.917969 L 26 359.917969 Z M 26 77 " clip-rule="nonzero"/></clipPath><clipPath id="79fc756eec"><path d="M 127 153 L 350 153 L 350 359.917969 L 127 359.917969 Z M 127 153 " clip-rule="nonzero"/></clipPath></defs><g clip-path="url(#c75a49db07)"><path fill="#374266" d="M 359.917969 187.417969 C 359.917969 202.753906 357.917969 217.613281 354.15625 231.765625 C 352.945312 236.335938 351.550781 240.835938 349.984375 245.25 C 337.09375 281.488281 312.421875 312.152344 280.578125 332.617188 C 273.667969 337.0625 266.421875 341.027344 258.890625 344.460938 C 255.519531 345.996094 252.085938 347.429688 248.601562 348.746094 C 240.132812 351.964844 231.34375 354.527344 222.304688 356.386719 L 222.296875 356.386719 C 213.5625 358.183594 204.578125 359.320312 195.410156 359.734375 C 192.761719 359.851562 190.09375 359.917969 187.417969 359.917969 C 184.882812 359.917969 182.355469 359.859375 179.847656 359.746094 C 161.625 358.96875 144.136719 355.355469 127.808594 349.339844 C 123.636719 347.804688 119.546875 346.117188 115.53125 344.273438 C 107.921875 340.773438 100.605469 336.746094 93.640625 332.21875 C 89.003906 329.210938 84.523438 325.984375 80.207031 322.558594 C 56.324219 303.597656 37.585938 278.433594 26.429688 249.496094 C 24.894531 245.539062 23.515625 241.511719 22.273438 237.414062 C 17.488281 221.59375 14.917969 204.800781 14.917969 187.417969 C 14.917969 165.535156 18.996094 144.59375 26.429688 125.332031 C 26.464844 125.234375 26.503906 125.132812 26.542969 125.035156 C 33.371094 107.445312 42.988281 91.257812 54.867188 77.019531 C 55.191406 76.632812 55.515625 76.246094 55.847656 75.855469 C 87.488281 38.574219 134.691406 14.917969 187.417969 14.917969 C 282.683594 14.917969 359.917969 92.148438 359.917969 187.417969 Z M 359.917969 187.417969 " fill-opacity="1" fill-rule="nonzero"/></g><path fill="#c5c6e0" d="M 176.769531 71.234375 L 176.769531 122.382812 C 176.769531 127.382812 172.710938 131.4375 167.714844 131.4375 C 162.710938 131.4375 158.660156 127.382812 158.660156 122.382812 L 158.660156 71.664062 C 158.660156 57.582031 147.515625 45.789062 133.4375 45.523438 C 119.027344 45.25 107.222656 56.890625 107.222656 71.234375 L 107.222656 122.386719 C 107.222656 127.386719 103.167969 131.441406 98.164062 131.441406 C 93.164062 131.441406 89.109375 127.386719 89.109375 122.386719 L 89.109375 71.234375 C 89.109375 47.03125 108.734375 27.40625 132.941406 27.40625 C 157.148438 27.40625 176.769531 47.03125 176.769531 71.234375 Z M 176.769531 71.234375 " fill-opacity="1" fill-rule="nonzero"/><g clip-path="url(#08c7cb0611)"><path fill="#ff526c" d="M 248.601562 77.019531 L 248.601562 348.75 C 240.132812 351.96875 231.34375 354.53125 222.304688 356.386719 L 222.296875 356.386719 C 213.5625 358.183594 204.578125 359.320312 195.410156 359.734375 C 192.761719 359.851562 190.09375 359.917969 187.417969 359.917969 C 184.882812 359.917969 182.355469 359.859375 179.847656 359.746094 C 156.972656 358.769531 135.253906 353.328125 115.53125 344.273438 C 107.921875 340.773438 100.605469 336.746094 93.640625 332.21875 C 89.003906 329.210938 84.523438 325.984375 80.207031 322.558594 C 56.324219 303.597656 37.585938 278.433594 26.429688 249.496094 L 26.429688 77.019531 Z M 248.601562 77.019531 " fill-opacity="1" fill-rule="nonzero"/></g><path fill="#e83150" d="M 65.265625 309.21875 C 48.472656 292.382812 35.140625 272.089844 26.429688 249.496094 L 26.429688 77.019531 L 65.265625 77.019531 Z M 65.265625 309.21875 " fill-opacity="1" fill-rule="nonzero"/><path fill="#f2f2f7" d="M 206.925781 71.234375 L 206.925781 122.382812 C 206.925781 127.382812 202.867188 131.4375 197.871094 131.4375 C 192.871094 131.4375 188.816406 127.382812 188.816406 122.382812 L 188.816406 71.664062 C 188.816406 57.582031 177.671875 45.789062 163.59375 45.523438 C 149.1875 45.25 137.382812 56.890625 137.382812 71.234375 L 137.382812 122.386719 C 137.382812 127.386719 133.324219 131.441406 128.324219 131.441406 C 123.324219 131.441406 119.269531 127.386719 119.269531 122.386719 L 119.269531 71.234375 C 119.269531 47.03125 138.890625 27.40625 163.097656 27.40625 C 187.304688 27.40625 206.925781 47.03125 206.925781 71.234375 Z M 206.925781 71.234375 " fill-opacity="1" fill-rule="nonzero"/><path fill="#c5c6e0" d="M 278.363281 134.824219 L 278.363281 185.972656 C 278.363281 190.972656 274.304688 195.027344 269.308594 195.027344 C 264.304688 195.027344 260.25 190.972656 260.25 185.972656 L 260.25 135.253906 C 260.25 121.171875 249.109375 109.378906 235.03125 109.109375 C 220.621094 108.835938 208.8125 120.476562 208.8125 134.824219 L 208.8125 185.976562 C 208.8125 190.976562 204.761719 195.03125 199.761719 195.03125 C 194.757812 195.03125 190.707031 190.976562 190.707031 185.976562 L 190.707031 134.824219 C 190.707031 110.621094 210.328125 90.996094 234.535156 90.996094 C 258.742188 90.996094 278.363281 110.621094 278.363281 134.824219 Z M 278.363281 134.824219 " fill-opacity="1" fill-rule="nonzero"/><g clip-path="url(#79fc756eec)"><path fill="#ffe261" d="M 349.984375 153.050781 L 349.984375 245.25 C 337.09375 281.488281 312.421875 312.152344 280.578125 332.617188 C 273.667969 337.0625 266.421875 341.027344 258.890625 344.460938 C 255.519531 345.996094 252.085938 347.429688 248.601562 348.746094 C 240.132812 351.964844 231.34375 354.527344 222.304688 356.386719 L 222.296875 356.386719 C 213.5625 358.183594 204.578125 359.320312 195.410156 359.734375 C 192.761719 359.851562 190.09375 359.917969 187.417969 359.917969 C 184.882812 359.917969 182.355469 359.859375 179.847656 359.746094 C 161.625 358.96875 144.136719 355.355469 127.808594 349.339844 L 127.808594 153.050781 Z M 349.984375 153.050781 " fill-opacity="1" fill-rule="nonzero"/></g><path fill="#f58d2c" d="M 166.402344 358.648438 C 160.15625 358.882812 134.609375 352.40625 127.808594 349.339844 L 127.808594 153.050781 L 166.648438 153.050781 Z M 166.402344 358.648438 " fill-opacity="1" fill-rule="nonzero"/><path fill="#f2f2f7" d="M 307.132812 134.824219 L 307.132812 185.972656 C 307.132812 190.972656 303.082031 195.027344 298.082031 195.027344 C 293.078125 195.027344 289.027344 190.972656 289.027344 185.972656 L 289.027344 135.253906 C 289.027344 121.171875 277.882812 109.378906 263.804688 109.109375 C 249.394531 108.835938 237.589844 120.476562 237.589844 134.824219 L 237.589844 185.976562 C 237.589844 190.976562 233.535156 195.03125 228.53125 195.03125 C 223.53125 195.03125 219.476562 190.976562 219.476562 185.976562 L 219.476562 134.824219 C 219.476562 110.621094 239.101562 90.996094 263.304688 90.996094 C 287.515625 90.996094 307.132812 110.621094 307.132812 134.824219 Z M 307.132812 134.824219 " fill-opacity="1" fill-rule="nonzero"/></svg>